#!OML:ASF F:\VICON\USERDATA\INSTALL\rory3\rory3.ASF
:FULLY-SPECIFIED
:DEGREES
168
root 0.6349900777473065 17.81641526554954 34.37411505237281 1.2369638845292787 -1.176551357206535 -0.7381008409066285
lfemur -18.47341837007792 3.121998975279068 -23.46580361055302
ltibia 59.58258372179702
lfoot 3.0340915345346717 -9.318841634914216
ltoes -9.08062397093324
rfemur -21.740594473053093 4.705654584810306 28.789156462812763
rtibia 60.41632490266783
rfoot 1.7694107071441438 -5.636670667714558
rtoes 0.634765324880762
lowerback 14.415479942640328 0.100227809677787 0.9832866241540057
upperback -1.439162837335516 0.07472343786566893 1.542568461485324
thorax -9.222183113914607 0.31859332904874194 1.188618795810096
lowerneck -19.92216893762261 -3.7640063010229863 -2.4669594600873355
upperneck 12.516686037116068 -5.803328055716512 5.180034934317251
head 7.332126077368596 -2.4602053617196304 1.3632602325739218
lclavicle 2.9801515526439752e-15 1.1900897868484632e-16
lhumerus -47.54364823422624 -12.054901243980076 95.67275106540374
lradius 112.05580793269549
lwrist 34.522111381676886
lhand -20.595768891650373 2.8425816348264967
lfingers 7.125019999999999
lthumb 5.409809462449222 32.46411799509229
rclavicle 2.9801381671163078e-15 1.1900166246856291e-16
rhumerus -51.528008470791875 10.233231775688303 -97.47309578256696
rradius 110.58698204612953
rwrist -15.286037795290907
rhand -15.734794583730135 38.45522789713669
rfingers 7.125019999999999
rthumb 10.435646197119798 8.24589384443741
169
root 0.6389855895392526 17.83427243961609 35.25139389362594 1.2779452144531582 -1.0439742969619394 -0.5859917916593309
lfemur -16.229064861852606 4.356304541864463 -21.56539749375071
ltibia 62.791971538803516
lfoot 1.2042195580372357 -9.820824595009684
ltoes -9.295602168291776
rfemur -22.56661162560617 4.475461672968944 28.294950521337274
rtibia 59.645929034747
rfoot 1.8851674529258635 -5.283140101676399
rtoes 0.5828507018737124
lowerback 14.561342478466806 0.203616009502134 1.1837209567189517
upperback -1.4368051930433965 0.04099878971781057 1.5673398278185822
thorax -9.123711636456283 0.5538594540404304 1.6490140518577943
lowerneck -19.94085726739149 -3.8601192509264615 -2.467453903427508
upperneck 12.583498297587859 -5.776126440741531 5.2081691418457305
head 7.362421303844406 -2.4628763077336706 1.3745292923739818
lclavicle 2.9801515526439752e-15 1.1900897868484632e-16
lhumerus -47.77080081798083 -12.109630877075205 95.83840660720115
lradius 110.76635475506147
lwrist 34.422670916935076
lhand -20.573837716876604 2.8492573320082792
lfingers 7.125019999999999
lthumb 5.435238587705152 32.44111551650869
rclavicle 2.9801381671163078e-15 1.1900166246856291e-16
rhumerus -51.73230126258109 10.095185181238739 -97.43590080742666
rradius 110.69310493493148
rwrist -15.254774242070301
rhand -15.751519041439506 38.428398912590374
rfingers 7.125019999999999
rthumb 10.529198414059017 8.287474602117486
170
root 0.63183356845563 17.796957359676664 33.939400768949625 1.16387376079709 -1.2407843812155226 -0.7517494724991216
lfemur -15.988628480056034 4.600771827529828 -21.569019799447332
ltibia 65.50398387015201
lfoot 0.7892225282645939 -9.709794992089577
ltoes -9.428615021638034
rfemur -20.596840842538825 4.870835411628272 28.699296185008137
rtibia 58.660331259775546
rfoot 1.4434491706710966 -4.802542527604998
rtoes -0.3441669742285247
lowerback 14.702175676678086 0.3296440411062872 1.3844230611514563
upperback -1.4013619188955826 0.13798093706523096 1.617434028757858
thorax -9.31375989562475 0.33673901020255187 0.9257100159681099
lowerneck -19.96052496302284 -3.956749912736646 -2.4725263592366855
upperneck 12.623550016675821 -5.726404818942663 5.205637996174592
head 7.3586734960267695 -2.5235541477316743 1.3457009055494622
lclavicle 2.9801515526439752e-15 1.1900897868484632e-16
lhumerus -48.644459316663614 -12.084291622884306 95.787333721388
lradius 110.21823702242393
lwrist 34.26975275460689
lhand -20.624798867783802 2.729736727012967
lfingers 7.125019999999999
lthumb 5.5200358211429 32.48187745565605
rclavicle 2.9801381671163078e-15 1.1900166246856291e-16
rhumerus -51.744001355250624 10.044045320259023 -97.34648533612969
rradius 110.87357593961916
rwrist -15.216389151377795
rhand -15.763520671822604 38.40570763399352
rfingers 7.125019999999999
rthumb 10.503447235347087 8.281454698237315
171
root 0.6291932774272874 17.77526840691466 33.79425738083724 1.1341712790076033 -1.3039459474404955 -0.7587849107661444
lfemur -15.495742781376194 5.230572805948088 -20.939083874148032
ltibia 67.41941038019965
lfoot -0.46459675572512404 -9.37275913933711
ltoes -9.403620730768887
rfemur -19.842709314067985 4.955115974718044 29.173533020885678
rtibia 57.78337508194149
rfoot 1.0544811228334363 -4.520373787803546
rtoes -1.4428801152779056
lowerback 14.752757085522871 0.3968369660097149 1.4323440751926246
upperback -1.326081773976819 0.2969189531312362 1.6595510401196276
thorax -9.305021842639523 0.4140449725231454 0.8858081637925053
lowerneck -19.869525909355296 -3.928469768345706 -2.4351332742609233
upperneck 12.657602548697207 -5.6977704024252835 5.207490166125036
head 7.377384088404461 -2.5264301561843268 1.3594090265320458
lclavicle 2.9801515526439752e-15 1.1900897868484632e-16
lhumerus -48.43796691023707 -11.936324929589079 95.92326564513998
lradius 110.03768692297886
lwrist 34.15307123643389
lhand -20.611351936750182 2.6803935103387415
lfingers 7.125019999999999
lthumb 5.589526468474415 32.51701800309312
rclavicle 2.9801381671163078e-15 1.1900166246856291e-16
rhumerus -51.719608887548056 10.015854807743056 -97.26580527358873
rradius 110.88636374078197
rwrist -15.255683730247172
rhand -15.72100360114433 38.4486173483908
rfingers 7.125019999999999
rthumb 10.493070466003651 8.27081937279818
172
root 0.6183936951092954 17.71074914297325 32.21088668563527 0.9675449670367597 -1.5325799398098858 -1.0059519848298863
lfemur -17.201582833979487 4.612442828768102 -21.82687190730572
ltibia 69.6186825644576
lfoot 0.27689112220454615 -8.795083783129979
ltoes -8.967992953341184
rfemur -20.127773276394855 4.996695380632985 29.310526429786847
rtibia 57.25832324618458
rfoot 0.7308511267360225 -4.473945352483183
rtoes -2.1915659920130044
lowerback 14.739253737895059 0.4051001335012222 1.4017247280932454
upperback -1.2328608136856478 0.47488917111430107 1.7185455122895001
thorax -9.342793449699535 0.3903329883769754 0.5971682766053528
lowerneck -19.969329978563533 -4.078332721027598 -2.4622731754501634
upperneck 12.657602725470593 -5.725552030747231 5.167514168261366
head 7.382652611908367 -2.525900207979097 1.3742110059830739
lclavicle 2.9801515526439752e-15 1.1900897868484632e-16
lhumerus -49.38986427991588 -12.006413922996495 95.83185205800321
lradius 110.2224041600549
lwrist 34.39083163899501
lhand -20.656830170912272 2.6712643599652703
lfingers 7.125019999999999
lthumb 5.650603904150251 32.535393132871285
rclavicle 2.9801381671163078e-15 1.1900166246856291e-16
rhumerus -51.54145059223211 10.044595194022005 -97.18136819567763
rradius 110.9676233669039
rwrist -15.342168300522857
rhand -15.733760121384112 38.44760964888098
rfingers 7.125019999999999
rthumb 10.550826989952572 8.337397062594665
